REM DIRINDEX 1\3,1\2\4,1\2\5,1\2\6
REM DIRNAME folder01,folder02,folder03,folder04,folder05,folder06
TITLE ""
FILE "095.mp3" MP3
  TRACK 01 AUDIO
    TITLE "4:cjc137_3909"
    INDEX 01 00:00:00
  TRACK 02 AUDIO
    TITLE "0:"
    INDEX 01 00:01:13
  TRACK 03 AUDIO
    TITLE "6:cjc137_3910"
    INDEX 01 00:01:21
  TRACK 04 AUDIO
    TITLE "0:"
    INDEX 01 00:02:18
  TRACK 05 AUDIO
    TITLE "5:cjc137_3911"
    INDEX 01 00:02:24
  TRACK 06 AUDIO
    TITLE "0:"
    INDEX 01 00:03:33
  TRACK 07 AUDIO
    TITLE "4:cjc137_3912"
    INDEX 01 00:04:44
  TRACK 08 AUDIO
    TITLE "0:"
    INDEX 01 00:05:59
  TRACK 09 AUDIO
    TITLE "6:cjc137_3913"
    INDEX 01 00:05:67
  TRACK 10 AUDIO
    TITLE "0:"
    INDEX 01 00:06:51
  TRACK 11 AUDIO
    TITLE "5:cjc137_3914"
    INDEX 01 00:06:59
  TRACK 12 AUDIO
    TITLE "0:"
    INDEX 01 00:07:74
  TRACK 13 AUDIO
    TITLE "4:cjc137_3915"
    INDEX 01 00:09:08
  TRACK 14 AUDIO
    TITLE "0:"
    INDEX 01 00:10:25
  TRACK 15 AUDIO
    TITLE "6:cjc137_3916"
    INDEX 01 00:10:33
  TRACK 16 AUDIO
    TITLE "0:"
    INDEX 01 00:11:33
  TRACK 17 AUDIO
    TITLE "5:cjc137_3917"
    INDEX 01 00:11:39
  TRACK 18 AUDIO
    TITLE "0:"
    INDEX 01 00:12:56
  TRACK 19 AUDIO
    TITLE "4:cjc137_3918"
    INDEX 01 00:13:65
  TRACK 20 AUDIO
    TITLE "0:"
    INDEX 01 00:15:09
  TRACK 21 AUDIO
    TITLE "6:cjc137_3919"
    INDEX 01 00:15:17
  TRACK 22 AUDIO
    TITLE "0:"
    INDEX 01 00:16:42
  TRACK 23 AUDIO
    TITLE "5:cjc137_3920"
    INDEX 01 00:16:49
  TRACK 24 AUDIO
    TITLE "0:"
    INDEX 01 00:17:65
  TRACK 25 AUDIO
    TITLE "4:cjc137_3921"
    INDEX 01 00:19:03
  TRACK 26 AUDIO
    TITLE "0:"
    INDEX 01 00:20:30
  TRACK 27 AUDIO
    TITLE "6:cjc137_3922"
    INDEX 01 00:20:37
  TRACK 28 AUDIO
    TITLE "0:"
    INDEX 01 00:21:53
  TRACK 29 AUDIO
    TITLE "5:cjc137_3923"
    INDEX 01 00:21:62
  TRACK 30 AUDIO
    TITLE "0:"
    INDEX 01 00:23:14
  TRACK 31 AUDIO
    TITLE "4:cjc137_3924"
    INDEX 01 00:24:24
  TRACK 32 AUDIO
    TITLE "0:"
    INDEX 01 00:25:39
  TRACK 33 AUDIO
    TITLE "6:cjc137_3925"
    INDEX 01 00:25:45
  TRACK 34 AUDIO
    TITLE "0:"
    INDEX 01 00:27:00
  TRACK 35 AUDIO
    TITLE "5:cjc137_3926"
    INDEX 01 00:27:02
  TRACK 36 AUDIO
    TITLE "0:"
    INDEX 01 00:28:19
  TRACK 37 AUDIO
    TITLE "4:cjc137_3927"
    INDEX 01 00:29:25
  TRACK 38 AUDIO
    TITLE "0:"
    INDEX 01 00:30:48
  TRACK 39 AUDIO
    TITLE "6:cjc137_3928"
    INDEX 01 00:30:59
  TRACK 40 AUDIO
    TITLE "0:"
    INDEX 01 00:31:69
  TRACK 41 AUDIO
    TITLE "5:cjc137_3929"
    INDEX 01 00:31:73
  TRACK 42 AUDIO
    TITLE "0:"
    INDEX 01 00:33:21
  TRACK 43 AUDIO
    TITLE "4:cjc137_3930"
    INDEX 01 00:34:32
  TRACK 44 AUDIO
    TITLE "0:"
    INDEX 01 00:35:43
  TRACK 45 AUDIO
    TITLE "6:cjc137_3931"
    INDEX 01 00:35:51
  TRACK 46 AUDIO
    TITLE "0:"
    INDEX 01 00:37:01
  TRACK 47 AUDIO
    TITLE "5:cjc137_3932"
    INDEX 01 00:37:05
  TRACK 48 AUDIO
    TITLE "0:"
    INDEX 01 00:38:18
  TRACK 49 AUDIO
    TITLE "4:cjc137_3933"
    INDEX 01 00:39:27
  TRACK 50 AUDIO
    TITLE "0:"
    INDEX 01 00:40:28
  TRACK 51 AUDIO
    TITLE "6:cjc137_3934"
    INDEX 01 00:40:40
  TRACK 52 AUDIO
    TITLE "0:"
    INDEX 01 00:41:40
  TRACK 53 AUDIO
    TITLE "5:cjc137_3935"
    INDEX 01 00:41:47
  TRACK 54 AUDIO
    TITLE "0:"
    INDEX 01 00:42:49
  TRACK 55 AUDIO
    TITLE "4:cjc137_3936"
    INDEX 01 00:43:62
  TRACK 56 AUDIO
    TITLE "0:"
    INDEX 01 00:44:61
  TRACK 57 AUDIO
    TITLE "6:cjc137_3937"
    INDEX 01 00:44:67
  TRACK 58 AUDIO
    TITLE "0:"
    INDEX 01 00:45:67
  TRACK 59 AUDIO
    TITLE "5:cjc137_3938"
    INDEX 01 00:45:73
  TRACK 60 AUDIO
    TITLE "0:"
    INDEX 01 00:46:74
  TRACK 61 AUDIO
    TITLE "4:cjc137_3939"
    INDEX 01 00:48:06
  TRACK 62 AUDIO
    TITLE "0:"
    INDEX 01 00:49:25
  TRACK 63 AUDIO
    TITLE "6:cjc137_3940"
    INDEX 01 00:49:31
  TRACK 64 AUDIO
    TITLE "0:"
    INDEX 01 00:51:05
  TRACK 65 AUDIO
    TITLE "5:cjc137_3941"
    INDEX 01 00:51:13
  TRACK 66 AUDIO
    TITLE "0:"
    INDEX 01 00:52:30
  TRACK 67 AUDIO
    TITLE "4:cjc137_3942"
    INDEX 01 00:53:39
  TRACK 68 AUDIO
    TITLE "0:"
    INDEX 01 00:54:38
  TRACK 69 AUDIO
    TITLE "6:cjc137_3943"
    INDEX 01 00:54:42
  TRACK 70 AUDIO
    TITLE "0:"
    INDEX 01 00:55:51
  TRACK 71 AUDIO
    TITLE "5:cjc137_3944"
    INDEX 01 00:55:57
  TRACK 72 AUDIO
    TITLE "0:"
    INDEX 01 00:56:59
  TRACK 73 AUDIO
    TITLE "4:cjc137_3945"
    INDEX 01 00:57:64
  TRACK 74 AUDIO
    TITLE "0:"
    INDEX 01 00:59:02
  TRACK 75 AUDIO
    TITLE "6:cjc137_3946"
    INDEX 01 00:59:04
  TRACK 76 AUDIO
    TITLE "0:"
    INDEX 01 01:00:55
  TRACK 77 AUDIO
    TITLE "5:cjc137_3947"
    INDEX 01 01:00:59
  TRACK 78 AUDIO
    TITLE "0:"
    INDEX 01 01:01:72
  TRACK 79 AUDIO
    TITLE "4:cjc137_3948"
    INDEX 01 01:03:02
  TRACK 80 AUDIO
    TITLE "0:"
    INDEX 01 01:04:17
  TRACK 81 AUDIO
    TITLE "6:cjc137_3949"
    INDEX 01 01:04:23
  TRACK 82 AUDIO
    TITLE "0:"
    INDEX 01 01:05:52
  TRACK 83 AUDIO
    TITLE "5:cjc137_3950"
    INDEX 01 01:05:58
  TRACK 84 AUDIO
    TITLE "0:"
    INDEX 01 01:06:71
